<svg width="450" height="504" viewBox="0 0 500 554" fill="none" xmlns="http://www.w3.org/2000/svg">
<circle cx="250" cy="250" r="250" fill="#C7DAD3"/>
<g clip-path="url(#clip0_53_11)">
<path d="M252.299 121.098C264.808 128.679 276.645 137.319 287.68 146.923C294.552 132.299 300.274 114.509 304.459 95.6395C281.866 66.4134 262.073 54.6721 262.073 54.6721C261.414 77.1193 258.134 99.4126 252.299 121.098V121.098Z" fill="#FF4700"/>
<path d="M252.299 121.098C264.808 128.679 276.645 137.319 287.68 146.923C294.552 132.299 300.274 114.509 304.459 95.6395C281.866 66.4134 262.073 54.6721 262.073 54.6721C261.414 77.1193 258.134 99.4126 252.299 121.098V121.098Z" fill="url(#paint0_linear_53_11)"/>
<path d="M169.827 554C172.597 554 175.366 554 178.075 553.898C430.396 548.196 464.117 293.053 376.015 181.424C352.913 152.177 367.768 84.387 296.456 34C297.648 47.8863 297.804 61.842 296.925 75.7515C295.906 92.5845 293.453 108.745 289.543 122.269C278.712 115.516 267.321 109.707 255.496 104.906C238.502 98.053 225.348 95.9552 216.968 96.4847C206.848 97.1874 196.198 106.8 179.439 110.884C144.149 104.906 115.946 94.6823 80.3512 76.7495C46.7518 168.776 135.067 220.965 209.159 311.291C272.591 388.745 279.229 503.348 169.827 554Z" fill="url(#paint1_linear_53_11)"/>
<path d="M167.628 239.591C185.68 258.491 204.282 278.022 222.609 300.293C263.437 350.12 280.563 411.424 268.426 464.244C263.224 487.217 252.376 508.528 236.863 526.251C318.459 463.114 258.835 291.322 258.835 291.322C268.6 293.614 278.489 295.338 288.454 296.485C252.299 217.391 90.37 181.413 91.602 101.424C83.5891 148.593 115.152 184.601 167.628 239.591Z" fill="#C7DAD3"/>
</g>
<defs>
<linearGradient id="paint0_linear_53_11" x1="214.158" y1="100.792" x2="369.204" y2="100.792" gradientUnits="userSpaceOnUse">
<stop stop-color="#2F404F"/>
<stop offset="1" stop-color="#3894A1"/>
</linearGradient>
<linearGradient id="paint1_linear_53_11" x1="132.39" y1="52.6252" x2="342.605" y2="506.173" gradientUnits="userSpaceOnUse">
<stop stop-color="#2F404F"/>
<stop offset="1" stop-color="#3894A1"/>
</linearGradient>
<clipPath id="clip0_53_11">
<rect width="347" height="520" fill="white" transform="matrix(-1 0 0 1 420 34)"/>
</clipPath>
</defs>
</svg>
